<svg width="140" height="32" viewBox="0 0 140 32" fill="none" xmlns="http://www.w3.org/2000/svg">
<path fill-rule="evenodd" clip-rule="evenodd" d="M0 14.1146C0 6.30931 6.30931 0 14.1146 0V14.1146H28.2293C28.2293 21.92 21.92 28.2293 14.1146 28.2293C6.30931 28.2293 0 21.92 0 14.1146ZM28.2293 14.1146V0H14.1146C14.1146 7.80533 20.4239 14.1146 28.2293 14.1146ZM45.0758 15.4319C44.6205 14.8465 44.1001 14.3912 43.3846 14.066C42.6691 13.7408 41.8886 13.5456 40.978 13.5456C39.8722 13.5456 38.8315 13.8058 37.9209 14.3262C37.0103 14.8465 36.2948 15.627 35.7744 16.6027C35.2541 17.5784 34.9939 18.6841 34.9939 19.985C34.9939 21.2859 35.2541 22.4567 35.7744 23.4324C36.2948 24.408 37.0103 25.1235 37.9209 25.6439C38.8315 26.1642 39.8722 26.4244 40.978 26.4244C42.7342 26.4244 44.1001 25.774 45.0758 24.408L45.401 26.2943H47.7426V9.05756H45.0758V15.4319ZM44.1001 23.0421C43.4497 23.8226 42.539 24.2129 41.4333 24.2129C40.3275 24.2129 39.4169 23.8226 38.7665 23.0421C38.116 22.2616 37.7258 21.2209 37.7258 19.985C37.7258 18.7492 38.051 17.7735 38.7665 16.993C39.4169 16.2124 40.3275 15.8222 41.4333 15.8222C42.539 15.8222 43.4497 16.2124 44.1001 16.993C44.7506 17.7735 45.1408 18.8142 45.1408 20.0501C45.1408 21.2859 44.8156 22.2616 44.1001 23.0421ZM54.117 14.196C53.5316 14.5212 53.0762 14.9765 52.686 15.5619L52.3608 13.6757H50.0192V26.2943H52.686V19.985C52.686 18.8792 52.9462 17.9686 53.4015 17.2531C53.9218 16.5376 54.7024 16.2124 55.8081 16.2124H56.9789V13.7407H56.3935C55.4178 13.6757 54.6373 13.8708 54.117 14.196ZM63.6785 13.5457C64.9794 13.5457 66.0851 13.8058 67.0608 14.3262C68.0365 14.9116 68.817 15.6271 69.3374 16.6027C69.8577 17.5784 70.1179 18.7492 70.1179 19.9851C70.1179 21.2859 69.8577 22.3917 69.3374 23.3674C68.817 24.343 68.0365 25.1236 67.0608 25.6439C66.0851 26.1643 64.9143 26.4244 63.6785 26.4244C62.3776 26.4244 61.2718 26.1643 60.2962 25.6439C59.3205 25.1236 58.54 24.343 58.0196 23.3674C57.4993 22.3917 57.2391 21.2859 57.2391 19.9851C57.2391 18.6842 57.4993 17.5784 58.0196 16.6027C58.54 15.6271 59.3205 14.8465 60.2962 14.3262C61.2718 13.8058 62.4426 13.5457 63.6785 13.5457ZM63.6785 24.1479C64.8493 24.1479 65.7599 23.7576 66.4104 22.9771C67.1258 22.1966 67.4511 21.2209 67.4511 19.9851C67.4511 18.7492 67.0608 17.7735 66.4104 16.993C65.6949 16.2125 64.7842 15.8222 63.6785 15.8222C62.5727 15.8222 61.6621 16.2125 61.0117 16.993C60.2962 17.7735 59.971 18.7492 59.971 19.9851C59.971 21.2209 60.3612 22.1966 61.0117 22.9771C61.6621 23.7576 62.5727 24.1479 63.6785 24.1479ZM81.7608 14.3262C80.8502 13.8058 79.8095 13.5457 78.7038 13.5457C76.9476 13.5457 75.5816 14.1961 74.606 15.562L74.2807 13.6757H71.9391V31.1727H74.606V24.4731C74.9962 25.0585 75.5816 25.5138 76.2321 25.9041C76.9476 26.2293 77.7281 26.4244 78.7038 26.4244C79.8745 26.4244 80.9153 26.1643 81.7608 25.6439C82.6715 25.1236 83.3869 24.343 83.9073 23.3674C84.4277 22.3917 84.6878 21.2859 84.6878 19.9851C84.6878 18.6842 84.4277 17.5134 83.9073 16.5377C83.3869 15.562 82.6715 14.8465 81.7608 14.3262ZM80.9153 22.9771C80.1998 23.7576 79.3542 24.1479 78.2484 24.1479C77.1427 24.1479 76.2321 23.7576 75.5816 22.9771C74.9312 22.1966 74.5409 21.1559 74.5409 19.92C74.5409 18.6842 74.8661 17.7085 75.5816 16.928C76.2321 16.1474 77.1427 15.7572 78.2484 15.7572C79.3542 15.7572 80.2648 16.1474 80.9153 16.928C81.5657 17.7085 81.956 18.6842 81.956 19.92C81.956 21.2209 81.6308 22.1966 80.9153 22.9771ZM89.8264 22.5868C89.8264 23.1072 89.9564 23.4324 90.1516 23.6275C90.3467 23.8227 90.6719 23.9527 91.1272 23.9527H93.1436V26.2943H90.6069C89.4361 26.2943 88.5255 26.0342 88.0051 25.4488C87.4197 24.8634 87.1595 24.0178 87.1595 22.847V16.0173H84.948V13.6757H87.1595V10.1633H89.8264V13.6757H92.8834V16.0173H89.8264V22.5868ZM102.9 14.2611C101.99 13.7408 100.884 13.5457 99.648 13.5457C98.4772 13.5457 97.3715 13.8058 96.4609 14.3262C95.5502 14.8465 94.8348 15.6271 94.3144 16.6027C93.7941 17.5784 93.5339 18.6842 93.5339 19.9851C93.5339 21.2859 93.7941 22.3917 94.3144 23.3674C94.8348 24.343 95.6153 25.0585 96.591 25.6439C97.5666 26.1643 98.7374 26.4244 100.038 26.4244C101.534 26.4244 102.835 26.0342 103.811 25.1886C104.852 24.343 105.437 23.3023 105.697 22.0665H103.03C102.835 22.782 102.51 23.3023 101.925 23.6926C101.339 24.0829 100.689 24.278 99.8432 24.278C98.8025 24.278 97.9569 23.9528 97.3715 23.3023C96.721 22.6519 96.3958 21.8063 96.3308 20.7005V20.5705H105.827C105.892 20.2452 105.892 19.92 105.892 19.5948C105.892 18.3589 105.632 17.3182 105.047 16.4076C104.526 15.4319 103.811 14.7815 102.9 14.2611ZM96.3958 18.6191C96.5259 17.7085 96.8511 16.993 97.5016 16.4727C98.152 15.9523 98.8675 15.6921 99.7781 15.6921C100.689 15.6921 101.469 15.9523 102.12 16.4727C102.705 16.993 103.095 17.7085 103.225 18.6191H96.3958ZM117.015 14.7815C117.926 15.562 118.381 16.6677 118.381 18.1638V23.1071C118.381 23.6925 118.706 23.9527 119.161 24.0178H119.682V26.3594H118.251C117.47 26.3594 116.885 26.1642 116.495 25.839C116.169 25.5138 115.974 24.9934 115.974 24.343C114.999 25.774 113.633 26.4895 111.811 26.4895C110.445 26.4895 109.275 26.1642 108.429 25.5138C107.583 24.8633 107.128 23.9527 107.128 22.7819C107.128 21.481 107.583 20.5054 108.494 19.7899C109.405 19.0744 110.771 18.7492 112.527 18.7492H115.714V17.9686C115.714 17.2531 115.519 16.6677 114.999 16.2775C114.478 15.8872 113.763 15.6921 112.917 15.6921C112.202 15.6921 111.551 15.8872 111.031 16.2124C110.51 16.6027 110.25 16.993 110.12 17.5784H107.518C107.649 16.3425 108.234 15.3669 109.21 14.6514C110.25 13.9359 111.486 13.6107 113.112 13.6107C114.803 13.6107 116.104 14.0009 117.015 14.7815ZM114.803 23.4324C115.454 22.847 115.779 22.0664 115.779 21.0908H115.714V20.6355H112.397C111.616 20.6355 110.966 20.7655 110.51 21.0908C110.055 21.416 109.86 21.8713 109.86 22.5217C109.86 23.0421 110.12 23.4974 110.51 23.8226C110.901 24.1479 111.486 24.343 112.202 24.343C113.307 24.343 114.218 24.0178 114.803 23.4324ZM138.805 14.8465C137.959 13.9359 136.788 13.4806 135.423 13.4806C134.382 13.4806 133.536 13.6757 132.821 14.066C132.105 14.4563 131.52 15.0417 131.065 15.7571C130.674 14.9766 130.154 14.3912 129.503 14.066C128.853 13.6757 128.072 13.4806 127.162 13.4806C125.601 13.4806 124.365 14.066 123.454 15.3018L123.129 13.6757H120.788V26.2943H123.454V19.5297C123.454 18.424 123.715 17.5133 124.235 16.7979C124.755 16.1474 125.471 15.8222 126.381 15.8222C127.227 15.8222 127.942 16.0824 128.398 16.6678C128.853 17.2532 129.048 18.0987 129.048 19.2045V26.2943H131.715V19.4647C131.715 18.3589 131.975 17.4483 132.495 16.7979C133.016 16.1474 133.731 15.8222 134.707 15.8222C135.553 15.8222 136.268 16.0824 136.658 16.6678C137.114 17.2532 137.309 18.0987 137.309 19.2045V26.2943H139.976V19.1395C140.106 17.1881 139.715 15.7571 138.805 14.8465Z" fill="#006CFF"/>
</svg>
